<svg width="80" height="80" viewBox="0 0 80 80" fill="none" xmlns="http://www.w3.org/2000/svg">
<circle cx="40" cy="40" r="40" fill="#2D2D2D"/>
<g clip-path="url(#clip0_601_8814)">
<path d="M33.3344 40C33.3344 36.3183 36.3183 33.3328 40 33.3328C43.6817 33.3328 46.6672 36.3183 46.6672 40C46.6672 43.6817 43.6817 46.6672 40 46.6672C36.3183 46.6672 33.3344 43.6817 33.3344 40ZM29.7302 40C29.7302 45.6721 34.3279 50.2698 40 50.2698C45.6721 50.2698 50.2698 45.6721 50.2698 40C50.2698 34.3279 45.6721 29.7302 40 29.7302C34.3279 29.7302 29.7302 34.3279 29.7302 40ZM48.2763 29.3231C48.2763 30.6478 49.3506 31.7237 50.6769 31.7237C52.0016 31.7237 53.0775 30.6478 53.0775 29.3231C53.0775 27.9984 52.0032 26.9241 50.6769 26.9241C49.3506 26.9241 48.2763 27.9984 48.2763 29.3231ZM31.9192 56.2795C29.9693 56.1906 28.9095 55.8659 28.2052 55.5913C27.2714 55.2278 26.6058 54.7948 25.9047 54.0953C25.2052 53.3958 24.7706 52.7302 24.4087 51.7964C24.1341 51.0921 23.8094 50.0323 23.7205 48.0824C23.6236 45.9742 23.6042 45.3409 23.6042 40C23.6042 34.6591 23.6252 34.0275 23.7205 31.9176C23.8094 29.9677 24.1357 28.9095 24.4087 28.2036C24.7722 27.2698 25.2052 26.6042 25.9047 25.9031C26.6042 25.2036 27.2698 24.769 28.2052 24.4071C28.9095 24.1325 29.9693 23.8078 31.9192 23.7189C34.0275 23.622 34.6607 23.6026 40 23.6026C45.3409 23.6026 45.9725 23.6236 48.0824 23.7189C50.0323 23.8078 51.0905 24.1341 51.7964 24.4071C52.7302 24.769 53.3958 25.2036 54.0969 25.9031C54.7964 26.6026 55.2294 27.2698 55.5929 28.2036C55.8675 28.9079 56.1922 29.9677 56.2811 31.9176C56.378 34.0275 56.3974 34.6591 56.3974 40C56.3974 45.3393 56.378 45.9725 56.2811 48.0824C56.1922 50.0323 55.8659 51.0921 55.5929 51.7964C55.2294 52.7302 54.7964 53.3958 54.0969 54.0953C53.3974 54.7948 52.7302 55.2278 51.7964 55.5913C51.0921 55.8659 50.0323 56.1906 48.0824 56.2795C45.9742 56.3764 45.3409 56.3958 40 56.3958C34.6607 56.3958 34.0275 56.3764 31.9192 56.2795ZM31.7544 20.1212C29.6252 20.2181 28.1712 20.5557 26.8998 21.0501C25.5848 21.5606 24.4701 22.2456 23.357 23.357C22.2456 24.4685 21.5606 25.5832 21.0501 26.8998C20.5557 28.1712 20.2181 29.6252 20.1212 31.7544C20.0226 33.8869 20 34.5687 20 40C20 45.4313 20.0226 46.1131 20.1212 48.2456C20.2181 50.3748 20.5557 51.8288 21.0501 53.1002C21.5606 54.4152 22.2439 55.5315 23.357 56.643C24.4685 57.7544 25.5832 58.4378 26.8998 58.9499C28.1729 59.4443 29.6252 59.7819 31.7544 59.8788C33.8885 59.9758 34.5687 60 40 60C45.433 60 46.1131 59.9774 48.2456 59.8788C50.3748 59.7819 51.8288 59.4443 53.1002 58.9499C54.4152 58.4378 55.5299 57.7544 56.643 56.643C57.7544 55.5315 58.4378 54.4152 58.9499 53.1002C59.4443 51.8288 59.7835 50.3748 59.8788 48.2456C59.9758 46.1115 59.9984 45.4313 59.9984 40C59.9984 34.5687 59.9758 33.8869 59.8788 31.7544C59.7819 29.6252 59.4443 28.1712 58.9499 26.8998C58.4378 25.5848 57.7544 24.4701 56.643 23.357C55.5315 22.2456 54.4152 21.5606 53.1018 21.0501C51.8288 20.5557 50.3748 20.2165 48.2472 20.1212C46.1147 20.0242 45.433 20 40.0016 20C34.5687 20 33.8885 20.0226 31.7544 20.1212Z" fill="#F2F2F3"/>
</g>
<defs>
<clipPath id="clip0_601_8814">
<rect width="40" height="40" fill="white" transform="translate(20 20)"/>
</clipPath>
</defs>
</svg>
